<?xml version="1.0" standalone="no"?>
<!DOCTYPE svg PUBLIC "-//W3C//DTD SVG 20010904//EN"
 "http://www.w3.org/TR/2001/REC-SVG-20010904/DTD/svg10.dtd">
<svg version="1.0" xmlns="http://www.w3.org/2000/svg"
 width="198.000000pt" height="208.000000pt" viewBox="0 0 198.000000 208.000000"
 preserveAspectRatio="xMidYMid meet">

<g transform="translate(0.000000,208.000000) scale(0.100000,-0.100000)"
fill="#000000" stroke="none">
<path d="M0 1040 l0 -1040 990 0 990 0 0 1040 0 1040 -990 0 -990 0 0 -1040z
m1061 580 c52 -27 76 -68 90 -157 l12 -73 108 0 108 0 6 -32 c3 -18 9 -55 14
-81 l9 -48 -132 -77 c-580 -341 -801 -469 -804 -467 -2 2 2 39 9 83 l12 80
141 81 141 81 -128 0 c-118 0 -128 1 -123 18 3 9 8 38 12 65 l6 47 227 0 226
0 105 60 105 60 -323 0 c-303 0 -323 1 -318 18 3 9 8 38 12 65 l6 47 108 0
108 0 6 28 c3 15 8 45 12 67 21 128 135 191 245 135z m382 -612 l6 -47 -117
-68 -117 -68 130 -5 130 -5 7 -40 c4 -22 7 -50 7 -62 l1 -23 -251 0 -252 0
-104 -57 -103 -58 370 -3 c352 -2 370 -3 370 -21 0 -10 3 -39 6 -65 l7 -46
-553 0 -552 0 7 43 c4 23 8 43 9 43 0 1 221 130 491 288 546 320 494 300 508
194z"/>
<path d="M907 1569 c-26 -20 -39 -54 -52 -136 l-7 -43 131 0 131 0 0 25 c0 61
-22 125 -52 150 -39 33 -113 35 -151 4z"/>
</g>
</svg>
