<?xml version="1.0" standalone="no"?>
<!DOCTYPE svg PUBLIC "-//W3C//DTD SVG 20010904//EN"
 "http://www.w3.org/TR/2001/REC-SVG-20010904/DTD/svg10.dtd">
<svg version="1.0" xmlns="http://www.w3.org/2000/svg"
 width="199.000000pt" height="216.000000pt" viewBox="0 0 199.000000 216.000000"
 preserveAspectRatio="xMidYMid meet">

<g transform="translate(0.000000,216.000000) scale(0.100000,-0.100000)"
fill="#000000" stroke="none">
<path d="M918 1637 c-53 -31 -67 -56 -83 -143 -8 -42 -15 -78 -15 -80 0 -2
-49 -4 -109 -4 l-109 0 -6 -37 c-4 -21 -9 -50 -12 -65 l-6 -28 324 0 323 0
-105 -60 -105 -60 -226 0 -227 0 -6 -37 c-4 -21 -9 -50 -12 -65 l-5 -27 122
-3 123 -3 -136 -79 -136 -79 -12 -79 c-6 -44 -10 -81 -8 -82 2 -2 211 119 466
268 356 209 462 275 462 290 0 11 -5 48 -11 83 l-11 63 -108 0 -108 0 -12 73
c-7 39 -21 87 -32 105 -42 69 -149 93 -220 49z m150 -43 c31 -22 49 -60 57
-127 l7 -57 -132 0 -132 0 6 48 c17 115 47 152 125 152 26 0 56 -7 69 -16z"/>
<path d="M960 838 c-261 -153 -480 -282 -487 -286 -7 -4 -15 -26 -19 -50 l-7
-42 552 0 551 0 -1 23 c0 12 -3 40 -7 62 l-7 40 -365 5 -365 5 101 58 100 57
253 0 253 0 -6 48 c-13 85 -8 82 -99 84 -45 1 -101 2 -124 1 -24 0 -43 1 -43
2 0 2 44 28 98 59 144 82 134 69 120 149 -6 37 -14 67 -17 66 -3 -1 -220 -127
-481 -281z"/>
</g>
</svg>
